<svg class="my-svg-icon" xmlns="http://www.w3.org/2000/svg" width="512" height="512" viewBox="0 0 512 512"><path id="path1" d="M 256 0 C 114.56314 0 0 114.71614 0 256 C 0 397.43686 114.71614 512 256 512 C 397.43686 512 512 397.28386 512 256 C 512 114.56314 397.28386 0 256 0 z M 253.41211 111.50781 L 253.76562 111.50781 C 301.26858 111.50781 321.77451 114.42361 327.1875 115.22461 C 359.26847 119.9656 386.33082 144.43736 390.50781 175.48633 C 392.77981 198.55031 390.80787 236.08805 390.79688 242.24805 C 390.79687 244.05905 390.53273 260.60942 390.42773 262.35742 C 387.61774 306.72538 359.95088 324.24413 330.87891 329.82812 C 330.48591 329.94512 330.02545 330.02619 329.56445 330.11719 C 311.13547 333.71618 291.38823 334.67422 272.65625 335.19922 C 268.17725 335.31822 263.70946 335.31836 259.23047 335.31836 A 235.52 235.52 0 0 1 203.9375 328.75195 A 0.62 0.62 0 0 0 203.38281 328.87305 A 0.62 0.62 0 0 0 203.15039 329.39648 A 67.832 67.832 0 0 0 206.96094 346.6543 C 209.46893 353.08929 218.22958 368.54883 250.81055 368.54883 A 240.049 240.049 0 0 0 307.02344 361.98047 A 0.648 0.648 0 0 1 307.30664 361.98047 A 0.638 0.638 0 0 1 307.81055 362.59961 L 307.81055 384.37695 A 0.676 0.676 0 0 1 307.53516 384.90039 C 301.51716 389.26239 293.3337 391.74485 286.3457 393.96484 A 126.28 126.28 0 0 1 276.97852 396.52539 A 158.807 158.807 0 0 1 190.35547 391.95508 C 164.30449 382.81209 137.71448 360.40444 131.14648 333.48047 A 317.86 317.86 0 0 1 123.75195 289.16406 C 121.70196 266.69008 121.53039 244.16559 120.65039 221.59961 C 120.03239 205.86563 120.38989 188.71027 123.71289 173.23828 C 130.62288 141.82031 159.10305 119.8346 190.29102 115.22461 C 195.70301 114.42361 205.89616 111.50781 253.41211 111.50781 z M 213.77734 158.79297 C 200.26036 158.79297 189.3694 163.5457 181.06641 172.80469 C 173.01941 182.08768 168.99414 194.61011 168.99414 210.37109 L 168.99414 287.50977 L 199.55078 287.50977 L 199.55078 212.64258 C 199.55078 196.88159 206.18581 188.84375 219.4668 188.84375 C 234.15378 188.84375 241.52344 198.35378 241.52344 217.13477 L 241.52344 258.11523 L 271.90625 258.11523 L 271.90625 217.13477 C 271.90625 198.35378 279.26219 188.84375 293.95117 188.84375 C 307.31116 188.84375 313.88086 196.88159 313.88086 212.64258 L 313.88086 287.50977 L 344.44922 287.50977 L 344.44922 210.37109 C 344.45822 194.60211 340.44334 182.07968 332.40234 172.80469 C 324.07335 163.5457 313.18372 158.79297 299.67773 158.79297 C 284.05975 158.79297 272.23551 164.80723 264.35352 176.82422 L 256.73438 189.5918 L 249.12891 176.82422 C 241.24691 164.80723 229.42333 158.79297 213.77734 158.79297 z "></path></svg>
